<svg width="31" height="30" viewBox="0 0 31 30" fill="none" xmlns="http://www.w3.org/2000/svg">
<path d="M15.5 0C7.22903 0 0.5 6.72903 0.5 15C0.5 23.271 7.22903 30 15.5 30C23.771 30 30.5 23.271 30.5 15C30.5 6.72903 23.771 0 15.5 0ZM19.2304 15.5281H16.79C16.79 19.427 16.79 24.2274 16.79 24.2274H13.1738C13.1738 24.2274 13.1738 19.4735 13.1738 15.5281H11.4548V12.4539H13.1738V10.4654C13.1738 9.04133 13.8505 6.81604 16.8232 6.81604L19.5017 6.82631V9.81048C19.5017 9.81048 17.8733 9.81048 17.5567 9.81048C17.2401 9.81048 16.7906 9.96878 16.7906 10.6479V12.4545H19.5458L19.2304 15.5281Z" fill="url(#paint0_linear_3923_1047)"/>
<defs>
<linearGradient id="paint0_linear_3923_1047" x1="15.5" y1="0" x2="15.5" y2="30" gradientUnits="userSpaceOnUse">
<stop stop-color="#F6E9C2"/>
<stop offset="1" stop-color="#B99F70"/>
</linearGradient>
</defs>
</svg>
