<svg width="30" height="30" viewBox="0 0 30 30" fill="none" xmlns="http://www.w3.org/2000/svg">
<g clip-path="url(#clip0_4091_4671)">
<path d="M15 0C6.71776 0 0 6.71776 0 15C0 23.2822 6.71776 30 15 30C23.2822 30 30 23.2822 30 15C30 6.71776 23.2867 0 15 0ZM23.6339 13.1244C23.4716 13.138 23.3138 13.147 23.1515 13.147C21.3796 13.147 19.7295 12.2543 18.7601 10.7755V18.8548C18.7601 22.1551 16.0866 24.8287 12.7863 24.8287C9.48602 24.8287 6.81244 22.1551 6.81244 18.8548C6.81244 15.5546 9.48602 12.881 12.7863 12.881C12.9125 12.881 13.0343 12.89 13.156 12.899V15.8431C13.0343 15.8296 12.9125 15.807 12.7863 15.807C11.1046 15.807 9.7385 17.1731 9.7385 18.8548C9.7385 20.5365 11.1046 21.9026 12.7863 21.9026C14.468 21.9026 15.9558 20.5771 15.9558 18.8909L15.9874 5.16682H18.8007C19.0667 7.69161 21.1001 9.66186 23.6339 9.84671V13.1154V13.1244Z" fill="url(#paint0_linear_4091_4671)"/>
</g>
<defs>
<linearGradient id="paint0_linear_4091_4671" x1="15" y1="0" x2="15" y2="30" gradientUnits="userSpaceOnUse">
<stop stop-color="#F6E9C2"/>
<stop offset="1" stop-color="#B99F70"/>
</linearGradient>
<clipPath id="clip0_4091_4671">
<rect width="30" height="30" fill="white"/>
</clipPath>
</defs>
</svg>
