<svg width="31" height="30" viewBox="0 0 31 30" fill="none" xmlns="http://www.w3.org/2000/svg">
<path fill-rule="evenodd" clip-rule="evenodd" d="M15.5 0C23.7787 0 30.5 6.72129 30.5 15C30.5 23.2787 23.7787 30 15.5 30C7.22129 30 0.5 23.2787 0.5 15C0.5 6.72129 7.22129 0 15.5 0ZM24.4833 10.487C24.2677 9.68021 23.6324 9.045 22.8257 8.82938C21.3633 8.4375 15.5 8.4375 15.5 8.4375C15.5 8.4375 9.6367 8.4375 8.17432 8.82938C7.36777 9.045 6.73232 9.68021 6.5167 10.487C6.125 11.9492 6.125 15.0001 6.125 15.0001C6.125 15.0001 6.125 18.0509 6.5167 19.513C6.73232 20.3198 7.36777 20.9552 8.17432 21.1708C9.6367 21.5625 15.5 21.5625 15.5 21.5625C15.5 21.5625 21.3633 21.5625 22.8257 21.1708C23.6324 20.9552 24.2677 20.3198 24.4833 19.513C24.875 18.0509 24.875 15.0001 24.875 15.0001C24.875 15.0001 24.875 11.9492 24.4833 10.487ZM13.6249 17.8127V12.1876L18.4963 15.0001L13.6249 17.8127Z" fill="url(#paint0_linear_3923_1019)"/>
<defs>
<linearGradient id="paint0_linear_3923_1019" x1="15.5" y1="0" x2="15.5" y2="30" gradientUnits="userSpaceOnUse">
<stop stop-color="#F6E9C2"/>
<stop offset="1" stop-color="#B99F70"/>
</linearGradient>
</defs>
</svg>
