<svg width="31" height="30" viewBox="0 0 31 30" fill="none" xmlns="http://www.w3.org/2000/svg">
<path fill-rule="evenodd" clip-rule="evenodd" d="M15.5 0C23.7787 0 30.5 6.72129 30.5 15C30.5 23.2787 23.7787 30 15.5 30C7.22129 30 0.5 23.2787 0.5 15C0.5 6.72129 7.22129 0 15.5 0ZM15.5 5.625C12.9539 5.625 12.6346 5.63578 11.6347 5.68143C10.6368 5.72695 9.95533 5.88545 9.35896 6.11719C8.7425 6.35678 8.21967 6.67734 7.69848 7.19854C7.17728 7.71973 6.85672 8.24256 6.61713 8.85902C6.38539 9.45533 6.22695 10.1368 6.18137 11.1347C6.13578 12.1346 6.125 12.4539 6.125 15C6.125 17.5461 6.13578 17.8654 6.18137 18.8653C6.22695 19.8632 6.38539 20.5447 6.61713 21.141C6.85672 21.7574 7.17728 22.2803 7.69848 22.8015C8.21967 23.3227 8.7425 23.6433 9.35896 23.8829C9.95533 24.1146 10.6368 24.273 11.6347 24.3186C12.6346 24.3642 12.9539 24.375 15.5 24.375C18.0461 24.375 18.3654 24.3642 19.3653 24.3186C20.3632 24.273 21.0447 24.1146 21.641 23.8829C22.2574 23.6433 22.7803 23.3227 23.3015 22.8015C23.8227 22.2803 24.1433 21.7574 24.3829 21.141C24.6146 20.5447 24.773 19.8632 24.8186 18.8653C24.8642 17.8654 24.875 17.5461 24.875 15C24.875 12.4539 24.8642 12.1346 24.8186 11.1347C24.773 10.1368 24.6146 9.45533 24.3829 8.85902C24.1433 8.24256 23.8227 7.71973 23.3015 7.19854C22.7803 6.67734 22.2574 6.35678 21.641 6.11719C21.0447 5.88545 20.3632 5.72695 19.3653 5.68143C18.3654 5.63578 18.0461 5.625 15.5 5.625ZM15.5 7.3142C18.0032 7.3142 18.2997 7.32375 19.2883 7.36887C20.2024 7.41059 20.6987 7.56328 21.0291 7.69166C21.4667 7.8617 21.779 8.0649 22.107 8.39297C22.4352 8.72098 22.6383 9.03334 22.8083 9.47092C22.9367 9.80127 23.0895 10.2976 23.1311 11.2117C23.1763 12.2003 23.1858 12.4968 23.1858 15C23.1858 17.5032 23.1763 17.7997 23.1311 18.7883C23.0895 19.7024 22.9367 20.1987 22.8083 20.5291C22.6383 20.9667 22.4352 21.279 22.107 21.607C21.779 21.9352 21.4667 22.1383 21.0291 22.3083C20.6987 22.4367 20.2024 22.5895 19.2883 22.6311C18.2999 22.6763 18.0034 22.6858 15.5 22.6858C12.9966 22.6858 12.7002 22.6763 11.7117 22.6311C10.7976 22.5895 10.3013 22.4367 9.97092 22.3083C9.53328 22.1383 9.22098 21.9352 8.89291 21.607C8.56484 21.279 8.3617 20.9667 8.19166 20.5291C8.06328 20.1987 7.91053 19.7024 7.86881 18.7883C7.82369 17.7997 7.8142 17.5032 7.8142 15C7.8142 12.4968 7.82369 12.2003 7.86881 11.2117C7.91053 10.2976 8.06328 9.80127 8.19166 9.47092C8.3617 9.03334 8.56484 8.72098 8.89291 8.39297C9.22098 8.0649 9.53328 7.8617 9.97092 7.69166C10.3013 7.56328 10.7976 7.41059 11.7117 7.36887C12.7003 7.32375 12.9968 7.3142 15.5 7.3142ZM15.5 10.1858C12.8412 10.1858 10.6858 12.3412 10.6858 15C10.6858 17.6588 12.8412 19.8142 15.5 19.8142C18.1588 19.8142 20.3142 17.6588 20.3142 15C20.3142 12.3412 18.1588 10.1858 15.5 10.1858ZM15.5 18.125C13.7741 18.125 12.375 16.7259 12.375 15C12.375 13.2741 13.7741 11.875 15.5 11.875C17.2259 11.875 18.625 13.2741 18.625 15C18.625 16.7259 17.2259 18.125 15.5 18.125ZM21.6294 9.99562C21.6294 10.617 21.1257 11.1206 20.5044 11.1206C19.8831 11.1206 19.3794 10.617 19.3794 9.99562C19.3794 9.3743 19.8831 8.87062 20.5044 8.87062C21.1257 8.87062 21.6294 9.3743 21.6294 9.99562Z" fill="url(#paint0_linear_3923_1014)"/>
<defs>
<linearGradient id="paint0_linear_3923_1014" x1="15.5" y1="0" x2="15.5" y2="30" gradientUnits="userSpaceOnUse">
<stop stop-color="#F6E9C2"/>
<stop offset="1" stop-color="#B99F70"/>
</linearGradient>
</defs>
</svg>
